<?xml version="1.0" encoding="UTF-8" standalone="no"?>
<svg
   viewBox="0 0 1024 1024"
   version="1.1"
   id="svg6"
   sodipodi:docname="OKX bg.var.svg"
   inkscape:version="1.2.2 (b0a8486541, 2022-12-01)"
   xmlns:inkscape="http://www.inkscape.org/namespaces/inkscape"
   xmlns:sodipodi="http://sodipodi.sourceforge.net/DTD/sodipodi-0.dtd"
   xmlns="http://www.w3.org/2000/svg"
   xmlns:svg="http://www.w3.org/2000/svg">
  <defs
     id="defs10" />
  <sodipodi:namedview
     id="namedview8"
     pagecolor="#ffffff"
     bordercolor="#666666"
     borderopacity="1.0"
     inkscape:showpageshadow="2"
     inkscape:pageopacity="0.0"
     inkscape:pagecheckerboard="0"
     inkscape:deskcolor="#d1d1d1"
     showgrid="true"
     inkscape:zoom="0.78613281"
     inkscape:cx="235.32919"
     inkscape:cy="515.18013"
     inkscape:window-width="1920"
     inkscape:window-height="986"
     inkscape:window-x="0"
     inkscape:window-y="33"
     inkscape:window-maximized="1"
     inkscape:current-layer="svg6"
     showguides="true">
    <sodipodi:guide
       position="513.90807,477.01863"
       orientation="1,0"
       id="guide3908"
       inkscape:locked="false" />
    <sodipodi:guide
       position="401.9677,512.63603"
       orientation="0,-1"
       id="guide3910"
       inkscape:locked="false" />
    <sodipodi:guide
       position="511.36398,539.34907"
       orientation="1,0"
       id="guide168"
       inkscape:locked="false" />
    <sodipodi:guide
       position="530.44472,511.36397"
       orientation="0,-1"
       id="guide170"
       inkscape:locked="false" />
    <inkscape:grid
       type="xygrid"
       id="grid793" />
    <sodipodi:guide
       position="512.63603,754.32546"
       orientation="1,0"
       id="guide795"
       inkscape:locked="false" />
    <sodipodi:guide
       position="475.11056,512"
       orientation="0,-1"
       id="guide797"
       inkscape:locked="false" />
  </sodipodi:namedview>
  <circle
     cx="512"
     cy="512"
     r="512"
     style="display:inline;fill:#ffffff;fill-opacity:1"
     id="circle2" />
  <path
     d="M 597.18832,422.97118 H 424.2764 c -7.35154,0 -13.30871,5.57698 -13.30871,12.44681 v 161.78329 c 0,6.86983 5.95717,12.44682 13.30871,12.44682 h 172.89925 c 7.35145,0 13.30872,-5.57699 13.30872,-12.44682 V 435.41799 c 0,-6.88252 -5.95727,-12.44681 -13.30872,-12.44681 z M 397.72234,236.26888 H 224.82309 c -7.35147,0 -13.30871,5.57701 -13.30871,12.45951 v 161.78329 c 0,6.86983 5.95724,12.44681 13.30871,12.44681 h 172.88657 c 7.35147,0 13.3087,-5.57698 13.3087,-12.44681 V 248.72839 c 0,-6.8825 -5.95723,-12.44681 -13.3087,-12.44681 z m 399.07135,0 H 623.88174 c -7.33877,0 -13.29602,5.57701 -13.29602,12.45951 v 161.78329 c 0,6.86983 5.95725,12.44681 13.30872,12.44681 h 172.88655 c 7.35155,0 13.30872,-5.57698 13.30872,-12.44681 V 248.72839 c 0,-6.8825 -5.95717,-12.44681 -13.30872,-12.44681 z M 397.72234,609.63544 H 224.82309 c -7.35147,0 -13.30871,5.57698 -13.30871,12.44683 v 161.79595 c 0,6.86984 5.95724,12.43415 13.30871,12.43415 h 172.88657 c 7.35147,0 13.3087,-5.57698 13.3087,-12.43415 V 622.08227 c 0,-6.86985 -5.95723,-12.44683 -13.3087,-12.44683 z m 399.07135,0 H 623.88174 c -7.33877,0 -13.29602,5.57698 -13.29602,12.44683 v 161.79595 c 0,6.86984 5.95725,12.43415 13.30872,12.43415 h 172.88655 c 7.35155,0 13.30872,-5.57698 13.30872,-12.43415 V 622.08227 c 0,-6.86985 -5.95717,-12.44683 -13.30872,-12.44683 z"
     id="path3416"
     style="display:inline;fill:#000000;stroke-width:12.675;fill-opacity:1"
     sodipodi:nodetypes="cssssssscccssssssscccssssssscccssssssscccssssssscc"
     inkscape:label="path3416" />
</svg>
