<?xml version="1.0" encoding="UTF-8" standalone="no"?>
<svg
   viewBox="0 0 1024 1024"
   version="1.1"
   id="svg6"
   sodipodi:docname="OKX.svg"
   inkscape:version="1.2.2 (b0a8486541, 2022-12-01)"
   xmlns:inkscape="http://www.inkscape.org/namespaces/inkscape"
   xmlns:sodipodi="http://sodipodi.sourceforge.net/DTD/sodipodi-0.dtd"
   xmlns="http://www.w3.org/2000/svg"
   xmlns:svg="http://www.w3.org/2000/svg">
  <defs
     id="defs10" />
  <sodipodi:namedview
     id="namedview8"
     pagecolor="#ffffff"
     bordercolor="#666666"
     borderopacity="1.0"
     inkscape:showpageshadow="2"
     inkscape:pageopacity="0.0"
     inkscape:pagecheckerboard="0"
     inkscape:deskcolor="#d1d1d1"
     showgrid="false"
     inkscape:zoom="0.78613281"
     inkscape:cx="522.1764"
     inkscape:cy="516.45218"
     inkscape:window-width="1920"
     inkscape:window-height="986"
     inkscape:window-x="0"
     inkscape:window-y="33"
     inkscape:window-maximized="1"
     inkscape:current-layer="svg6"
     showguides="true">
    <sodipodi:guide
       position="513.90807,477.01863"
       orientation="1,0"
       id="guide3908"
       inkscape:locked="false" />
    <sodipodi:guide
       position="401.9677,512.63603"
       orientation="0,-1"
       id="guide3910"
       inkscape:locked="false" />
    <sodipodi:guide
       position="511.36398,539.34907"
       orientation="1,0"
       id="guide168"
       inkscape:locked="false" />
    <sodipodi:guide
       position="530.44472,511.36397"
       orientation="0,-1"
       id="guide170"
       inkscape:locked="false" />
    <inkscape:grid
       type="xygrid"
       id="grid793" />
    <sodipodi:guide
       position="512.63603,754.32546"
       orientation="1,0"
       id="guide795"
       inkscape:locked="false" />
    <sodipodi:guide
       position="475.11056,512"
       orientation="0,-1"
       id="guide797"
       inkscape:locked="false" />
    <sodipodi:guide
       position="512.63603,515.18012"
       orientation="1,0"
       id="guide3100"
       inkscape:locked="false" />
    <sodipodi:guide
       position="493.55528,511.36397"
       orientation="0,-1"
       id="guide3102"
       inkscape:locked="false" />
  </sodipodi:namedview>
  <circle
     cx="512"
     cy="512"
     r="512"
     style="display:inline;fill:#000000;fill-opacity:1"
     id="circle2" />
  <path
     d="M 587.29874,432.23506 H 432.49479 c -6.58166,0 -11.91497,4.99294 -11.91497,11.14333 v 144.84075 c 0,6.1504 5.33331,11.14335 11.91497,11.14335 H 587.2874 c 6.58158,0 11.91498,-4.99295 11.91498,-11.14335 V 443.37839 c 0,-6.16176 -5.3334,-11.14333 -11.91498,-11.14333 z M 408.72157,265.08491 H 253.92896 c -6.58159,0 -11.91497,4.99296 -11.91497,11.1547 v 144.84075 c 0,6.1504 5.33338,11.14334 11.91497,11.14334 h 154.78126 c 6.5816,0 11.91496,-4.99294 11.91496,-11.14334 V 276.23961 c 0,-6.16174 -5.33336,-11.14333 -11.91496,-11.14333 z m 357.27914,0 H 611.19673 c -6.57023,0 -11.90361,4.99296 -11.90361,11.1547 v 144.84075 c 0,6.1504 5.33338,11.14334 11.91498,11.14334 h 154.78124 c 6.58167,0 11.91498,-4.99294 11.91498,-11.14334 V 276.23961 c 0,-6.16174 -5.33331,-11.14333 -11.91498,-11.14333 z M 408.72157,599.35115 H 253.92896 c -6.58159,0 -11.91497,4.99294 -11.91497,11.14335 v 144.85209 c 0,6.1504 5.33338,11.132 11.91497,11.132 h 154.78126 c 6.5816,0 11.91496,-4.99294 11.91496,-11.132 V 610.4945 c 0,-6.15041 -5.33336,-11.14335 -11.91496,-11.14335 z m 357.27914,0 H 611.19673 c -6.57023,0 -11.90361,4.99294 -11.90361,11.14335 v 144.85209 c 0,6.1504 5.33338,11.132 11.91498,11.132 h 154.78124 c 6.58167,0 11.91498,-4.99294 11.91498,-11.132 V 610.4945 c 0,-6.15041 -5.33331,-11.14335 -11.91498,-11.14335 z"
     id="path3416"
     style="display:inline;fill:#ffffff;stroke-width:11.3476"
     sodipodi:nodetypes="cssssssscccssssssscccssssssscccssssssscccssssssscc"
     inkscape:label="path3416" />
</svg>
