<?xml version="1.0" encoding="UTF-8" standalone="no"?>
<svg
   viewBox="0 0 1024 1024"
   version="1.1"
   id="svg6"
   sodipodi:docname="OKX.svg"
   inkscape:version="1.2.2 (b0a8486541, 2022-12-01)"
   xmlns:inkscape="http://www.inkscape.org/namespaces/inkscape"
   xmlns:sodipodi="http://sodipodi.sourceforge.net/DTD/sodipodi-0.dtd"
   xmlns="http://www.w3.org/2000/svg"
   xmlns:svg="http://www.w3.org/2000/svg">
  <defs
     id="defs10" />
  <sodipodi:namedview
     id="namedview8"
     pagecolor="#ffffff"
     bordercolor="#666666"
     borderopacity="1.0"
     inkscape:showpageshadow="2"
     inkscape:pageopacity="0.0"
     inkscape:pagecheckerboard="0"
     inkscape:deskcolor="#d1d1d1"
     showgrid="false"
     inkscape:zoom="0.78613281"
     inkscape:cx="398.15155"
     inkscape:cy="489.73913"
     inkscape:window-width="1920"
     inkscape:window-height="986"
     inkscape:window-x="0"
     inkscape:window-y="33"
     inkscape:window-maximized="1"
     inkscape:current-layer="svg6"
     showguides="true">
    <sodipodi:guide
       position="513.90807,477.01863"
       orientation="1,0"
       id="guide3908"
       inkscape:locked="false" />
    <sodipodi:guide
       position="401.9677,512.63603"
       orientation="0,-1"
       id="guide3910"
       inkscape:locked="false" />
    <sodipodi:guide
       position="511.36398,539.34907"
       orientation="1,0"
       id="guide168"
       inkscape:locked="false" />
    <sodipodi:guide
       position="530.44472,511.36397"
       orientation="0,-1"
       id="guide170"
       inkscape:locked="false" />
  </sodipodi:namedview>
  <circle
     cx="512"
     cy="512"
     r="512"
     style="display:inline;fill:#5e5e5e;fill-opacity:1"
     id="circle2" />
  <g
     id="g3906"
     transform="matrix(0.30239597,0,0,0.30239597,330.49821,332.43848)">
    <path
       d="m 83.60444,241.93806 h -716.52257 c -4.4465,0 -8.68656,1.63568 -11.81499,4.57355 a 15.102238,15.102238 0 0 0 -4.8594,11.02098 v 670.46947 c 0,4.1289 1.74684,8.099 4.87528,11.02098 3.12843,2.92199 7.36849,4.57355 11.78323,4.57355 H 83.60444 c 4.430625,0 8.654805,-1.65156 11.799119,-4.57355 a 15.118118,15.118118 0 0 0 4.875271,-11.02098 V 257.53259 c 0,-4.1289 -1.746837,-8.09899 -4.875271,-11.02098 A 17.277849,17.277849 0 0 0 83.60444,241.93806 Z m -233.28272,452.17783 c 0,4.12889 -1.74684,8.09899 -4.89116,11.02098 a 17.261969,17.261969 0 0 1 -11.76736,4.57355 h -216.64009 c -4.41474,0 -8.6548,-1.65156 -11.78324,-4.57355 a 15.102238,15.102238 0 0 1 -4.87527,-11.02098 V 491.41877 c 0,-4.1289 1.74684,-8.09899 4.87527,-11.02098 3.12844,-2.93787 7.3685,-4.57355 11.78324,-4.57355 h 216.64009 c 4.41475,0 8.65481,1.63568 11.76736,4.57355 a 15.086357,15.086357 0 0 1 4.89116,11.02098 z M 1583.6648,475.856 h -216.6401 c -9.2107,0 -16.6744,6.98736 -16.6744,15.59453 v 202.69712 c 0,8.60716 7.4637,15.59453 16.6744,15.59453 h 216.6242 c 9.2106,0 16.6744,-6.98737 16.6744,-15.59453 V 491.45053 c 0,-8.62305 -7.4638,-15.59453 -16.6744,-15.59453 z M 1333.7553,241.93806 h -216.6242 c -9.2106,0 -16.6744,6.98737 -16.6744,15.61041 v 202.69712 c 0,8.60716 7.4638,15.59453 16.6744,15.59453 h 216.6083 c 9.2106,0 16.6744,-6.98737 16.6744,-15.59453 V 257.54847 c 0,-8.62304 -7.4638,-15.59453 -16.6744,-15.59453 z m 499.9936,0 h -216.6401 c -9.1947,0 -16.6585,6.98737 -16.6585,15.61041 v 202.69712 c 0,8.60716 7.4638,15.59453 16.6744,15.59453 h 216.6083 c 9.2107,0 16.6744,-6.98737 16.6744,-15.59453 V 257.54847 c 0,-8.62304 -7.4637,-15.59453 -16.6744,-15.59453 z M 1333.7553,709.7263 h -216.6242 c -9.2106,0 -16.6744,6.98736 -16.6744,15.59453 v 202.71299 c 0,8.60717 7.4638,15.57865 16.6744,15.57865 h 216.6083 c 9.2106,0 16.6744,-6.98736 16.6744,-15.57865 V 725.32083 c 0,-8.60717 -7.4638,-15.59453 -16.6744,-15.59453 z m 499.9936,0 h -216.6401 c -9.1947,0 -16.6585,6.98736 -16.6585,15.59453 v 202.71299 c 0,8.60717 7.4638,15.57865 16.6744,15.57865 h 216.6083 c 9.2107,0 16.6744,-6.98736 16.6744,-15.57865 V 725.32083 c 0,-8.60717 -7.4637,-15.59453 -16.6744,-15.59453 z M 958.51788,241.93806 H 741.90955 c -9.21062,0 -16.6744,6.98737 -16.6744,15.61041 v 202.69712 c 0,8.60716 7.46378,15.59453 16.6744,15.59453 h 216.60833 c 9.21061,0 16.67439,-6.98737 16.67439,-15.59453 V 257.54847 c 0,-8.62304 -7.46378,-15.59453 -16.67439,-15.59453 z m 0,467.78824 H 741.90955 c -9.21062,0 -16.6744,6.98736 -16.6744,15.59453 v 202.71299 c 0,8.60717 7.46378,15.57865 16.6744,15.57865 h 216.60833 c 9.21061,0 16.67439,-6.98736 16.67439,-15.57865 V 725.32083 c 0,-8.60717 -7.46378,-15.59453 -16.67439,-15.59453 z M 725.17163,491.24408 c 0,-4.12889 -1.7786,-8.09899 -4.89116,-11.03686 a 17.261969,17.261969 0 0 0 -11.78323,-4.55767 H 475.19863 V 257.53259 c 0,-4.1289 -1.74684,-8.09899 -4.87527,-11.02098 a 17.261969,17.261969 0 0 0 -11.78324,-4.57355 H 241.91591 c -4.43063,0 -8.67069,1.63568 -11.79912,4.57355 a 15.102238,15.102238 0 0 0 -4.87528,11.02098 V 927.6527 c 0,4.12889 1.74684,8.09899 4.87528,11.02098 3.12843,2.92199 7.36849,4.57354 11.79912,4.57354 h 216.60833 c 4.43062,0 8.67068,-1.65155 11.79912,-4.57354 3.12843,-2.92199 4.87527,-6.89209 4.87527,-11.02098 V 709.53573 h 233.28273 c 4.43062,0 8.67068,-1.65156 11.79911,-4.57355 a 15.118118,15.118118 0 0 0 4.87528,-11.02098 z"
       id="path3416"
       style="display:inline;fill:#ffffff;stroke-width:15.8804" />
  </g>
</svg>
